<svg id="Шар_1" data-name="Шар 1" xmlns="http://www.w3.org/2000/svg" xmlns:xlink="http://www.w3.org/1999/xlink" viewBox="0 0 570 450"><defs><clipPath id="clip-path"><rect width="570" height="450" fill="none"/></clipPath><clipPath id="clip-path-2"><rect x="51.8" y="103.36" width="485.31" height="218.86" fill="none"/></clipPath></defs><g clip-path="url(#clip-path)"><rect x="2.87" y="2.72" width="564.25" height="444.55" fill="none" stroke="#254357" stroke-width="5.45"/></g><text transform="translate(51.63 57.6)" font-size="30" fill="#254357" font-family="Roboto-Black, Roboto" font-weight="800">AI-Lösungsarchitektur</text><line x1="70.77" y1="156.93" x2="70.77" y2="109.77" fill="none" stroke="#cacfd4" stroke-width="1.78"/><line x1="220.73" y1="157.09" x2="220.73" y2="109.94" fill="none" stroke="#cacfd4" stroke-width="1.78"/><line x1="359.73" y1="157.09" x2="359.73" y2="109.94" fill="none" stroke="#cacfd4" stroke-width="1.78"/><line x1="291.77" y1="269.27" x2="291.77" y2="316.43" fill="none" stroke="#cacfd4" stroke-width="1.78"/><line x1="422.9" y1="269.27" x2="422.9" y2="316.43" fill="none" stroke="#cacfd4" stroke-width="1.78"/><line x1="146.26" y1="269.27" x2="146.26" y2="316.43" fill="none" stroke="#cacfd4" stroke-width="1.78"/><text transform="translate(75.36 120.86)" font-size="14" fill="#1d1d1b" font-family="Roboto-Bold, Roboto" font-weight="700">Förderantrag</text><text transform="translate(150.99 299.62)" font-size="14" fill="#1d1d1b" font-family="Roboto-Bold, Roboto" font-weight="700">Dokument­-<tspan x="0" y="16.8">analyse</tspan></text><text transform="translate(225.33 120.86)" font-size="14" fill="#1d1d1b" font-family="Roboto-Bold, Roboto" font-weight="700">Informations­-<tspan x="0" y="16.8">extraktion</tspan></text><text transform="translate(296.63 299.62)" font-size="14" fill="#1d1d1b" font-family="Roboto-Bold, Roboto" font-weight="700">RAG / <tspan x="0" y="16.8">Wissens­basis</tspan></text><text transform="translate(329.7 299.62)" font-size="14" fill="#1d1d1b" font-family="Roboto-Bold, Roboto" font-weight="700"> </text><text transform="translate(342.59 316.42)" font-size="14" fill="#1d1d1b" font-family="Roboto-Bold, Roboto" font-weight="700"> </text><text transform="translate(427.75 299.62)" font-size="14" fill="#1d1d1b" font-family="Roboto-Bold, Roboto" font-weight="700">Fachliche <tspan x="0" y="16.8">Empfehlung</tspan></text><text transform="translate(364.33 120.86)" font-size="14" fill="#1d1d1b" font-family="Roboto-Bold, Roboto" font-weight="700">LLM</text><g clip-path="url(#clip-path-2)"><path d="M110.66,161.79H72.42q-9.56,16.56-19.12,33.12Q62.87,211.46,72.42,228h38.24l19.11-33.11Z" fill="none" stroke="#3bb0a8" stroke-width="2"/></g><text transform="translate(68.43 207.05)" font-size="40" fill="#cacfd4" font-family="Roboto-Bold, Roboto" font-weight="700">01</text><g clip-path="url(#clip-path-2)"><path d="M256.81,161.79H218.57l-19.11,33.12L218.57,228h38.24q9.56-16.56,19.12-33.11Q266.36,178.35,256.81,161.79Z" fill="none" stroke="#3bb0a8" stroke-width="2"/></g><text transform="translate(214.88 207.05)" font-size="40" fill="#cacfd4" font-family="Roboto-Bold, Roboto" font-weight="700">03</text><g clip-path="url(#clip-path-2)"><path d="M403.13,161.6H364.89l-19.12,33.11,19.12,33.11h38.24l19.11-33.11Z" fill="none" stroke="#3bb0a8" stroke-width="2"/></g><text transform="translate(354.2 206.85)" font-size="40" fill="#cacfd4" font-family="Roboto-Bold, Roboto" font-weight="700">05</text><g clip-path="url(#clip-path-2)"><path d="M330.12,198.21H291.88q-9.56,16.56-19.12,33.11,9.57,16.56,19.12,33.12h38.24l19.11-33.12-19.11-33.11" fill="#f5f0e5"/><path d="M330.12,198.21H291.88q-9.56,16.56-19.12,33.11,9.57,16.56,19.12,33.12h38.24l19.11-33.12Z" fill="none" stroke="#3bb0a8" stroke-width="2"/></g><text transform="translate(288.04 245.96)" font-size="40" fill="#cacfd4" font-family="Roboto-Bold, Roboto" font-weight="700">04</text><polygon points="461.01 197.01 421.62 197.01 401.93 231.12 421.62 265.24 461.01 265.24 480.71 231.12 461.01 197.01" fill="none" stroke="#3bb0a8" stroke-width="2"/><text transform="translate(418.35 245.76)" font-size="40" fill="#cacfd4" font-family="Roboto-Bold, Roboto" font-weight="700">06</text><g clip-path="url(#clip-path-2)"><path d="M184,198.21H145.74l-19.11,33.11,19.11,33.12H184l19.11-33.12Z" fill="none" stroke="#3bb0a8" stroke-width="2"/></g><text transform="translate(141.59 245.96)" font-size="40" fill="#cacfd4" font-family="Roboto-Bold, Roboto" font-weight="700">02</text><text transform="translate(52.09 399.09)" font-size="11" font-family="Roboto-Regular, Roboto">Konzeption einer KI-gestützten Lösungsarchitektur <tspan x="0" y="13.2">zur strukturierten Vorprüfung von Förderanträgen.</tspan></text></svg>