<svg id="Шар_1" data-name="Шар 1" xmlns="http://www.w3.org/2000/svg" xmlns:xlink="http://www.w3.org/1999/xlink" viewBox="0 0 570 450"><defs><clipPath id="clip-path"><rect x="40.3" y="88.9" width="495.49" height="282.76" fill="none"/></clipPath><clipPath id="clip-path-9"><rect id="SVGID" width="570" height="450" fill="none"/></clipPath></defs><text transform="translate(47.63 57.6)" font-size="30" fill="#254357" font-family="Roboto-Black, Roboto" font-weight="800">Prozessmodell</text><text transform="translate(48.09 399.09)" font-size="11" font-family="Roboto-Regular, Roboto">Neugestaltung des Berichtsprozesses durch standardisierte Datenerfassung, <tspan x="0" y="13.2">kontinuierliches Monitoring und einheitliche KPI-Strukturen.</tspan></text><line x1="94.64" y1="126.38" x2="49.3" y2="126.38" fill="none" stroke="#cacfd4" stroke-width="1.08"/><line x1="330.84" y1="148.23" x2="246.21" y2="148.23" fill="none" stroke="#cacfd4" stroke-width="2.01"/><line x1="194.98" y1="149.53" x2="149.65" y2="149.53" fill="none" stroke="#cacfd4" stroke-width="1.08"/><line x1="518.17" y1="191.44" x2="433.54" y2="191.44" fill="none" stroke="#cacfd4" stroke-width="2.01"/><line x1="94.64" y1="175.34" x2="49.3" y2="175.34" fill="none" stroke="#cacfd4" stroke-width="1.08"/><line x1="330.84" y1="239.64" x2="246.21" y2="239.64" fill="none" stroke="#cacfd4" stroke-width="2.01"/><line x1="194.98" y1="198.49" x2="149.65" y2="198.49" fill="none" stroke="#cacfd4" stroke-width="1.08"/><line x1="518.17" y1="282.85" x2="433.54" y2="282.85" fill="none" stroke="#cacfd4" stroke-width="2.01"/><text transform="translate(49.3 134.82)" font-size="7.25" fill="#646363" font-family="Roboto-Bold, Roboto" font-weight="700">Excel / <tspan x="0" y="8.7">Word /</tspan><tspan x="0" y="17.41">E-Mail</tspan></text><text transform="translate(246.21 163.58)" font-size="13" fill="#1d1d1b" font-family="Roboto-Bold, Roboto" font-weight="700">Online-<tspan x="0" y="15.6">Erfas­sung</tspan></text><text transform="translate(276.58 179.18)" font-size="13" fill="#1d1d1b" font-family="Roboto-Bold, Roboto" font-weight="700"> </text><text transform="translate(163.71 157.79)" font-size="7.25" fill="#646363" font-family="Roboto-Bold, Roboto" font-weight="700">Manuelle <tspan x="4.55" y="8.71">Konso­li­-</tspan><tspan x="6.99" y="17.41">dierung</tspan></text><text transform="translate(466.69 206.46)" font-size="13" fill="#1d1d1b" font-family="Roboto-Bold, Roboto" font-weight="700">Standar-<tspan x="3.5" y="15.6">disierte </tspan><tspan x="16.69" y="31.2">Daten</tspan></text><text transform="translate(519.3 206.46)" font-size="13" fill="#1d1d1b" font-family="Roboto-Bold, Roboto" font-weight="700"> </text><text transform="translate(49.3 184.42)" font-size="7.25" fill="#646363" font-family="Roboto-Bold, Roboto" font-weight="700">Unein­-<tspan x="0" y="8.71">heit­liche </tspan><tspan x="0" y="17.41">Erfassung</tspan></text><text transform="translate(246.21 256.17)" font-size="13" fill="#1d1d1b" font-family="Roboto-Bold, Roboto" font-weight="700">Kontinuier-<tspan x="0" y="15.6">liches </tspan><tspan x="0" y="31.2">Monitoring</tspan></text><text transform="translate(311.85 256.17)" font-size="13" fill="#1d1d1b" font-family="Roboto-Bold, Roboto" font-weight="700"> </text><text transform="translate(181.79 224.16)" font-size="7.25" fill="#646363" font-family="Roboto-Bold, Roboto" font-weight="700"> </text><text transform="translate(494.49 313.47)" font-size="13" fill="#1d1d1b" font-family="Roboto-Bold, Roboto" font-weight="700"> </text><g clip-path="url(#clip-path)"><path d="M115.13,127H97.33l-8.89,15.41,8.89,15.42h17.8l8.9-15.42Q119.58,134.75,115.13,127Z" fill="none" stroke="#646363" stroke-width="0.93"/></g><text transform="translate(95.48 148.1)" font-size="18.62" fill="#cacfd4" font-family="Roboto-Bold, Roboto" font-weight="700">01</text><g clip-path="url(#clip-path)"><path d="M369.1,149.44H335.88q-8.31,14.38-16.61,28.77,8.3,14.4,16.61,28.78H369.1q8.31-14.38,16.61-28.78Q377.42,163.82,369.1,149.44Z" fill="none" stroke="#3bb0a8" stroke-width="1.74"/></g><text transform="translate(332.41 188.77)" font-size="34.76" fill="#cacfd4" font-family="Roboto-Bold, Roboto" font-weight="700">01</text><g clip-path="url(#clip-path)"><path d="M146.21,150.06h-17.8l-8.89,15.41,8.89,15.41h17.8q4.46-7.69,8.9-15.41Z" fill="none" stroke="#646363" stroke-width="0.93"/></g><text transform="translate(126.56 171.13)" font-size="18.62" fill="#cacfd4" font-family="Roboto-Bold, Roboto" font-weight="700">02</text><g clip-path="url(#clip-path)"><path d="M427.12,192.43H393.9q-8.31,14.38-16.61,28.77L393.9,250h33.22l16.61-28.78Q435.43,206.82,427.12,192.43Z" fill="none" stroke="#3bb0a8" stroke-width="1.74"/></g><text transform="translate(390.43 231.76)" font-size="34.76" fill="#cacfd4" font-family="Roboto-Bold, Roboto" font-weight="700">02</text><g clip-path="url(#clip-path)"><path d="M115.21,175H97.41l-8.9,15.42q4.45,7.69,8.9,15.41h17.8l8.89-15.41Z" fill="none" stroke="#646363" stroke-width="0.93"/></g><text transform="translate(95.48 197.21)" font-size="18.62" fill="#cacfd4" font-family="Roboto-Bold, Roboto" font-weight="700">03</text><g clip-path="url(#clip-path)"><path d="M369.24,239H336l-16.61,28.77L336,296.51h33.22l16.62-28.78Z" fill="none" stroke="#3bb0a8" stroke-width="1.74"/></g><text transform="translate(332.41 280.45)" font-size="34.76" fill="#cacfd4" font-family="Roboto-Bold, Roboto" font-weight="700">03</text><g clip-path="url(#clip-path)"><path d="M146.29,198h-17.8q-4.46,7.71-8.9,15.41l8.9,15.42h17.8q4.44-7.71,8.9-15.42Q150.74,205.73,146.29,198Z" fill="none" stroke="#646363" stroke-width="0.93"/></g><text transform="translate(126.56 220.24)" font-size="18.62" fill="#cacfd4" font-family="Roboto-Bold, Roboto" font-weight="700">04</text><g clip-path="url(#clip-path)"><path d="M427.26,282H394l-16.61,28.77L394,339.49h33.22l16.62-28.77Z" fill="none" stroke="#3bb0a8" stroke-width="1.74"/></g><text transform="translate(390.43 323.44)" font-size="34.76" fill="#cacfd4" font-family="Roboto-Bold, Roboto" font-weight="700">04</text><rect x="49.8" y="96.34" width="49" height="17.1" fill="none" stroke="#1d1d1b"/><rect x="246.8" y="116.34" width="49" height="17.1" fill="none" stroke="#1d1d1b"/><text transform="translate(59.78 108.64)" font-size="10" fill="#1d1d1b" font-family="Roboto-Bold, Roboto" font-weight="700">vorher</text><text transform="translate(258.6 128.64)" font-size="10" fill="#1d1d1b" font-family="Roboto-Bold, Roboto" font-weight="700">heute</text><text transform="translate(173.87 206.89)" font-size="7.25" fill="#646363" font-family="Roboto-Bold, Roboto" font-weight="700">Verzö­-<tspan x="-0.66" y="8.71">gertes </tspan><tspan x="-10.02" y="17.41">Repor­ting</tspan></text><text transform="translate(462.92 297.32)" font-size="13" fill="#1d1d1b" font-family="Roboto-Bold, Roboto" font-weight="700">Aktuelles<tspan x="-2.35" y="15.6">Repor­ting</tspan></text><g clip-path="url(#clip-path-9)"><rect x="2.87" y="2.72" width="564.25" height="444.55" fill="none" stroke="#254357" stroke-width="5.45"/></g></svg>